<svg width="214" height="58" viewBox="0 0 214 58" fill="none" xmlns="http://www.w3.org/2000/svg">
<path d="M22.6695 6.1394C22.6695 6.1394 -20.664 20.5181 14.7546 40.6491C55.5469 58.2475 116.086 58.5932 126.948 57.7528C111.352 56.3353 54.3038 55.4354 20.5067 34.5029C14.3968 30.2092 3.05315 18.9494 22.6695 6.1394Z" fill="white"/>
<path d="M50.2622 1.5003C50.2622 1.5003 143.395 -6.77104 192.416 15.5286C247.99 39.5732 177.848 55.5136 177.848 55.5136C177.848 55.5136 192.368 49.3834 195.737 45.2408C199.106 41.0983 206.122 32.9323 186.664 22.2038C167.206 11.4754 117.797 -0.927063 50.2622 1.5003Z" fill="white"/>
<path d="M91.9604 20.4018C91.9199 20.3995 91.8793 20.3995 91.8388 20.4018C91.676 20.3858 91.5109 20.3743 91.3434 20.3743H91.3044L82.6809 20.3606V23.2299H86.6761H91.2999C91.4466 23.2299 91.5888 23.2299 91.731 23.2505H91.7631C92.5218 23.2632 93.2612 23.4917 93.8945 23.909C94.5278 24.3264 95.0288 24.9154 95.3387 25.6069C95.6269 26.2202 95.7757 26.8896 95.7745 27.5671C95.7909 28.3948 95.5704 29.2101 95.139 29.9171C94.7076 30.6241 94.083 31.1935 93.3388 31.5585H93.3273C92.6706 31.752 91.9892 31.8492 91.3044 31.847H91.1577H86.7427H82.674V34.7186L91.2976 34.7324C92.0827 34.7342 92.8637 34.6176 93.614 34.3866C93.614 34.3866 93.6301 34.3866 93.6392 34.3866C94.1855 34.2287 94.7078 33.9976 95.1919 33.6996C95.2584 33.663 95.3227 33.6218 95.3869 33.5782C96.3782 32.9074 97.1873 32.0014 97.7417 30.9415C98.2961 29.8816 98.5784 28.7009 98.5634 27.5053C98.566 26.5899 98.4005 25.6817 98.0749 24.826C97.0887 22.2292 94.7218 20.4018 91.9604 20.4018Z" fill="url(#paint0_linear_175_1500)"/>
<path d="M28.2333 20.2732H26.2884H26.2586C26.1027 20.2732 25.9467 20.2732 25.7999 20.2938C25.6531 20.3144 25.5339 20.2801 25.4008 20.2801C22.2863 20.2801 19.6671 22.5861 18.9653 25.6958C18.5815 27.1389 18.6847 28.6681 19.2588 30.0467C20.1372 32.3665 22.1257 34.0748 24.5201 34.4137C25.0936 34.5485 25.6809 34.6161 26.2701 34.6152H28.2196H28.3755H33.3134H36.3317V31.7642V26.1561V26.0256H33.3249H31.9052H28.7998V28.8926H29.536H31.8823H33.3272V31.7642H30.63H28.2333H26.2884C26.1049 31.7642 25.9261 31.7642 25.7472 31.7413C25.4041 31.7164 25.0636 31.6643 24.7288 31.5856C23.0408 31.0887 21.8 29.4307 21.8 27.4637C21.8006 27.0395 21.8585 26.6174 21.972 26.2088C21.9737 26.2005 21.9737 26.1919 21.972 26.1836C22.2563 25.3708 22.7679 24.6564 23.4464 24.1252C24.1248 23.5939 24.9416 23.268 25.7999 23.186C25.9658 23.1664 26.1328 23.1572 26.2999 23.1585H28.2448H30.7355L36.3592 23.17V20.2984L28.4007 20.2846L28.2333 20.2732Z" fill="url(#paint1_linear_175_1500)"/>
<path d="M60.6451 26.6184C60.2942 23.117 57.5283 20.3988 54.1729 20.3988H54.1224C53.8194 20.3461 53.5126 20.3185 53.205 20.3164H53.1775H51.0422H49.7005H47.5653H47.5355C47.1992 20.3173 46.8637 20.3487 46.5332 20.4103H46.4965C42.898 20.4103 39.9807 23.5338 39.9807 27.3924C39.9807 30.4724 41.8407 33.0829 44.4232 34.0104L44.5264 34.0585C45.4819 34.4598 46.508 34.6669 47.5446 34.6676H51.0147H53.1477C54.184 34.6745 55.2111 34.4736 56.1682 34.0768C56.3563 33.9989 56.5421 33.9119 56.7232 33.818C56.7389 33.8127 56.7536 33.805 56.7668 33.7951C58.0171 33.2055 59.0504 32.2387 59.7209 31.0311C59.7301 31.0179 59.7385 31.0042 59.7461 30.9899V30.9899C59.7782 30.9372 59.808 30.8869 59.8355 30.8342C59.863 30.7815 59.8929 30.7266 59.9204 30.6739V30.6602C59.98 30.5388 60.0374 30.4151 60.0901 30.2892C60.3966 29.6053 60.5888 28.8758 60.6589 28.1298C60.6749 27.9305 60.6841 27.729 60.6864 27.5275C60.6863 27.2481 60.6686 26.9689 60.6337 26.6917C60.6423 26.6682 60.6462 26.6433 60.6451 26.6184ZM53.1614 31.7868H49.118H47.5469C47.1423 31.7874 46.7384 31.7506 46.3405 31.6769C46.2809 31.6769 46.2259 31.6586 46.1685 31.6448C44.5034 31.283 43.2168 29.7785 43.0333 27.9099L43.0631 27.958C43.0465 27.7967 43.0381 27.6347 43.0379 27.4725C43.0379 25.2078 44.9232 23.3277 47.2717 23.1857C47.3703 23.1857 47.4689 23.1857 47.5699 23.1857H48.9781H49.7028H53.1637C53.2165 23.1857 53.2692 23.1857 53.322 23.1857C54.2226 23.2084 55.0961 23.4981 55.8313 24.018C56.5665 24.538 57.1301 25.2646 57.4503 26.1054C57.5846 26.544 57.6527 27.0001 57.6521 27.4588C57.6521 29.5335 56.3012 31.2647 54.5031 31.6654C54.4251 31.6838 54.3495 31.6952 54.2738 31.7067C54.1981 31.7181 54.1683 31.725 54.1132 31.7296C53.7977 31.7712 53.4797 31.7903 53.1614 31.7868V31.7868Z" fill="url(#paint2_linear_175_1500)"/>
<path d="M70.109 31.8214H69.6732C69.5975 31.8214 69.5241 31.8214 69.4438 31.8214C69.2699 31.8044 69.0984 31.7683 68.9324 31.7138C68.9301 31.7213 68.9301 31.7292 68.9324 31.7367C68.4615 31.5465 68.0598 31.2176 67.7807 30.7938C67.5017 30.37 67.3586 29.8713 67.3705 29.3643C67.3705 29.3414 67.3705 29.3139 67.3705 29.291V26.8385V23.218V20.3464H64.3523L64.3408 29.6391C64.3408 32.1855 66.3361 34.306 68.9117 34.6541L68.8751 34.6175L72.4713 34.6999H72.5469H72.6662H75.1891H78.9986V31.8374H77.4895L70.109 31.8214Z" fill="url(#paint3_linear_175_1500)"/>
<path d="M111.244 20.4126H110.858C110.794 20.4126 110.73 20.4126 110.668 20.4126L107.026 20.4607C104.446 20.7996 102.519 22.9018 102.515 25.4459V26.1329V29.0045V34.7432L105.524 34.7638V31.883V29.0137H110.209H115.656H117.166V26.1627H115.656H110.212H105.526V26.0619C105.541 25.52 105.693 24.9906 105.968 24.5233C106.243 24.0559 106.632 23.6658 107.099 23.3896C107.335 23.3128 107.581 23.2742 107.829 23.2751L115.661 23.2888H118.679V20.4263H113.363L111.244 20.4126Z" fill="white"/>
<path d="M122.365 20.4336L122.34 34.7825L125.358 34.7877L125.383 20.4389L122.365 20.4336Z" fill="white"/>
<path d="M145.065 23.699C145.067 23.6869 145.067 23.6745 145.065 23.6624C144.953 23.1664 144.744 22.6978 144.448 22.284C144.152 21.8703 143.776 21.5199 143.343 21.2533V21.2533C142.577 20.7221 140.962 20.4885 140.962 20.4885C140.869 20.4746 140.776 20.4677 140.682 20.4679L129.043 20.4473V23.3166H136.416H138.201H140.685C140.992 23.3129 141.292 23.4031 141.546 23.575C141.801 23.7469 141.996 23.9923 142.107 24.2784C142.107 24.2784 142.565 25.9569 140.808 26.1859H140.682H138.318H136.409H129.038V29.0529L140.678 29.0735C140.873 29.0625 141.069 29.0915 141.253 29.1586C141.437 29.2258 141.606 29.3298 141.748 29.4642C141.891 29.5986 142.004 29.7606 142.082 29.9403C142.159 30.12 142.199 30.3137 142.199 30.5093C142.199 30.705 142.159 30.8987 142.082 31.0784C142.004 31.2581 141.891 31.4201 141.748 31.5545C141.606 31.6889 141.437 31.7929 141.253 31.8601C141.069 31.9272 140.873 31.9562 140.678 31.9452L129.036 31.9245V34.7916L140.675 34.8122C143.164 34.8122 145.205 32.8817 145.21 30.5162C145.206 29.4462 144.792 28.4182 144.051 27.6446C144.55 27.1321 144.907 26.4989 145.087 25.8072C145.266 25.1155 145.263 24.389 145.077 23.699H145.065Z" fill="white"/>
<path d="M179.525 21.253V21.2416C179.385 21.0237 179.192 20.8444 178.965 20.7202C178.737 20.5961 178.482 20.531 178.223 20.531C177.963 20.531 177.708 20.5961 177.48 20.7202C177.253 20.8444 177.06 21.0237 176.92 21.2416V21.253L176.75 21.5324L175.569 23.4903L168.636 34.8669H172.122L173.649 32.3616L175.374 29.4969L177.174 26.5451L178.257 24.8872L181.053 29.4969L182.791 32.3708L184.312 34.8898H187.782L179.525 21.253Z" fill="white"/>
<path d="M165.182 28.6483C166.036 27.7829 166.519 26.623 166.531 25.4113C166.533 24.6651 166.348 23.9302 165.992 23.2731C165.638 22.5017 165.088 21.8348 164.396 21.3375C163.705 20.8403 162.896 20.5298 162.048 20.4362H162L161.692 20.4164H161.665L160.965 20.3695H160.825L149.101 20.3374V23.2188L157.005 23.2312H160.813C162.07 23.2312 163.116 24.0805 163.25 25.1546C163.426 27.078 161.819 27.4533 161.531 27.5076H161.521C161.289 27.5366 161.056 27.5506 160.823 27.5495H157.067H152.377H149.111L149.101 30.4334V34.7568H152.372V30.4359H159.934L162.758 34.7642H166.531L163.362 29.9396C164.061 29.6554 164.684 29.2133 165.182 28.6483Z" fill="white"/>
<defs>
<linearGradient id="paint0_linear_175_1500" x1="90.543" y1="20.3148" x2="90.6367" y2="34.7347" gradientUnits="userSpaceOnUse">
<stop stop-color="#B37715"/>
<stop offset="0.14" stop-color="#C29834"/>
<stop offset="0.44" stop-color="#EAED83"/>
<stop offset="0.5" stop-color="#F2FF94"/>
<stop offset="1" stop-color="#BFBA00"/>
</linearGradient>
<linearGradient id="paint1_linear_175_1500" x1="27.4902" y1="15.5696" x2="27.7326" y2="53.3952" gradientUnits="userSpaceOnUse">
<stop stop-color="#B37715"/>
<stop offset="0.14" stop-color="#C29834"/>
<stop offset="0.44" stop-color="#EAED83"/>
<stop offset="0.5" stop-color="#F2FF94"/>
<stop offset="1" stop-color="#BFBA00"/>
</linearGradient>
<linearGradient id="paint2_linear_175_1500" x1="50.2968" y1="20.2889" x2="50.3906" y2="34.6813" gradientUnits="userSpaceOnUse">
<stop stop-color="#B37715"/>
<stop offset="0.14" stop-color="#C29834"/>
<stop offset="0.44" stop-color="#EAED83"/>
<stop offset="0.5" stop-color="#F2FF94"/>
<stop offset="1" stop-color="#BFBA00"/>
</linearGradient>
<linearGradient id="paint3_linear_175_1500" x1="71.6181" y1="20.2892" x2="71.7118" y2="34.7571" gradientUnits="userSpaceOnUse">
<stop stop-color="#B37715"/>
<stop offset="0.14" stop-color="#C29834"/>
<stop offset="0.44" stop-color="#EAED83"/>
<stop offset="0.5" stop-color="#F2FF94"/>
<stop offset="1" stop-color="#BFBA00"/>
</linearGradient>
</defs>
</svg>
